# xmcd
#
# Track frame offsets: 
#        150
#        11891
#        27074
#        41866
#        56941
#        68221
#        85732
#        98760
#        117104
#        135006
#        147194
#        172121
#        188408
#        202269
#
# Disc length: 2938 seconds
#
# Revision: 0
# Processed by: cddbd v1.5.2PL0 Copyright (c) Steve Scherf et al.
# Submitted via: ExactAudioCopy v0.99pb3
#
DISCID=c00b780e
DTITLE=Keni Lee Burgesst - Good and Evil
DYEAR=2008
DGENRE=Blues
TTITLE0=Mean Old World Blues
TTITLE1=Kind Hearted Papa
TTITLE2=Can't Be satisfied
TTITLE3=You're Gonna Need Somebody on your Bond
TTITLE4=Baby Please Don't Go
TTITLE5=Mississippi Blues
TTITLE6=Moon Going Down
TTITLE7=Contemporary Blues
TTITLE8=When The Levee Breaks
TTITLE9=Summertime
TTITLE10=Rollin' and Tumblin'
TTITLE11=Stop Breaking down
TTITLE12=Electricity
TTITLE13=Come Back Baby
EXTD=
EXTT0=
EXTT1=
EXTT2=
EXTT3=
EXTT4=
EXTT5=
EXTT6=
EXTT7=
EXTT8=
EXTT9=
EXTT10=
EXTT11=
EXTT12=
EXTT13=
PLAYORDER=
